<?xml version="1.0" encoding="UTF-8"?>
<svg width="10px" height="9px" viewBox="0 0 10 9" version="1.1" xmlns="http://www.w3.org/2000/svg" xmlns:xlink="http://www.w3.org/1999/xlink">
    <!-- Generator: Sketch 41.2 (35397) - http://www.bohemiancoding.com/sketch -->
    <title>issue</title>
    <desc>Created with Sketch.</desc>
    <defs></defs>
    <g id="Page-1" stroke="none" stroke-width="1" fill="none" fill-rule="evenodd">
        <g id="Final" transform="translate(-225.000000, -242.000000)" fill="#EC4417">
            <g id="sidebar" transform="translate(210.000000, 120.000000)">
                <g id="Menu">
                    <g id="Notification" transform="translate(10.000000, 116.000000)">
                        <path d="M14.40625,13.5703125 C14.4687503,13.6328128 14.5,13.710937 14.5,13.8046875 C14.5,13.898438 14.4687503,13.9765622 14.40625,14.0390625 L13.515625,14.90625 C13.4531247,14.9687503 13.3828129,15 13.3046875,15 C13.210937,15 13.1328128,14.9687503 13.0703125,14.90625 L10,11.8359375 L6.9296875,14.90625 C6.86718719,14.9687503 6.79687539,15 6.71875,15 C6.62499953,15 6.54687531,14.9687503 6.484375,14.90625 L5.59375,14.0390625 C5.53124969,13.9765622 5.5,13.898438 5.5,13.8046875 C5.5,13.710937 5.53124969,13.6328128 5.59375,13.5703125 L8.6875,10.5 L5.59375,7.453125 C5.43749922,7.29687422 5.43749922,7.14062578 5.59375,6.984375 L6.4609375,6.09375 C6.55468797,6.03124969 6.63281219,6 6.6953125,6 C6.78906297,6 6.86718719,6.03124969 6.9296875,6.09375 L10,9.140625 L13.0703125,6.09375 C13.164063,6.03124969 13.2421872,6 13.3046875,6 C13.398438,6 13.4765622,6.03124969 13.5390625,6.09375 L14.40625,6.984375 C14.5625008,7.14062578 14.5625008,7.2890618 14.40625,7.4296875 L11.3125,10.4765625 L14.40625,13.5703125 Z" id="issue"></path>
                    </g>
                </g>
            </g>
        </g>
    </g>
</svg>