<?xml version="1.0" encoding="UTF-8"?>
<svg width="146px" height="30px" viewBox="0 0 146 30" version="1.1" xmlns="http://www.w3.org/2000/svg" xmlns:xlink="http://www.w3.org/1999/xlink">
    <!-- Generator: Sketch 41.2 (35397) - http://www.bohemiancoding.com/sketch -->
    <title>litmus-status-logo</title>
    <desc>Created with Sketch.</desc>
    <defs></defs>
    <g id="Page-1" stroke="none" stroke-width="1" fill="none" fill-rule="evenodd">
        <g id="Final" transform="translate(-210.000000, -15.000000)" fill="#FFFFFF">
            <g id="litmus-status-logo" transform="translate(210.000000, 15.000000)">
                <g id="footer-logo">
                    <g id="Layer_1">
                        <g id="Group">
                            <path d="M11.6849483,20.0825581 L6.52189655,27.1827907 C8.79268966,28.7274419 11.5131724,29.6609302 14.4473276,29.7474419 L14.4473276,20.972093 C13.4390172,20.8995349 12.4984397,20.584186 11.6849483,20.0825581 Z" id="Shape"></path>
                            <path d="M14.4235862,8.77883721 L14.4235862,0.00279069767 C11.4908276,0.0934883721 8.77174138,1.03116279 6.5030431,2.57930233 L11.6653966,9.67813953 C12.4774914,9.1744186 13.4159741,8.8555814 14.4235862,8.77883721 Z" id="Shape"></path>
                            <path d="M23.2623621,2.56604651 C20.991569,1.02139535 18.2710862,0.0879069767 15.3383276,0.00139534884 L15.3383276,8.77674419 C16.3459397,8.84930233 17.285819,9.16395349 18.1000086,9.6655814 L23.2623621,2.56604651 Z" id="Shape"></path>
                            <path d="M9.23260345,17.2046512 L0.877732759,19.9172093 C1.84624138,22.6025581 3.56539655,24.93 5.78242241,26.6455814 L10.9447759,19.5460465 C10.2011121,18.9181395 9.60967241,18.1165116 9.23260345,17.2046512 Z" id="Shape"></path>
                            <path d="M10.927319,10.2181395 L5.76356897,3.11790698 C3.54933621,4.83697674 1.83367241,7.16651163 0.869353448,9.85395349 L9.22422414,12.565814 C9.59780172,11.6518605 10.1864483,10.8488372 10.927319,10.2181395 Z" id="Shape"></path>
                            <path d="M8.77174138,14.8744186 C8.77174138,14.3790698 8.83249138,13.8969767 8.94351724,13.435814 L0.587948276,10.7232558 C0.205293103,12.0411628 0,13.4337209 0,14.8744186 C0,16.3234884 0.208086207,17.7237209 0.594232759,19.047907 L8.94910345,16.3353488 C8.83458621,15.8672093 8.77174138,15.3781395 8.77174138,14.8744186 Z" id="Shape"></path>
                            <path d="M18.8583362,19.5306977 L24.0213879,26.6309302 C26.236319,24.9118605 27.9512845,22.5816279 28.9149052,19.8948837 L20.5607328,17.1830233 C20.1871552,18.0969767 19.5992069,18.9 18.8583362,19.5306977 Z" id="Shape"></path>
                            <path d="M15.3613707,20.9706977 L15.3613707,29.7467442 C18.2941293,29.6560465 21.0132155,28.7183721 23.2819138,27.1695349 L18.1195603,20.0706977 C17.3081638,20.5744186 16.3689828,20.8939535 15.3613707,20.9706977 Z" id="Shape"></path>
                            <path d="M29.1900259,10.7009302 L20.8351552,13.4134884 C20.951069,13.8816279 21.0125172,14.3706977 21.0125172,14.8744186 C21.0125172,15.3697674 20.9524655,15.8511628 20.8407414,16.3123256 L29.1963103,19.0248837 C29.5782672,17.7069767 29.7842586,16.3144186 29.7842586,14.8737209 C29.7849569,13.4253488 29.577569,12.0251163 29.1900259,10.7009302 Z" id="Shape"></path>
                            <path d="M20.5516552,12.544186 L28.9072241,9.83162791 C27.9394138,7.1455814 26.2195603,4.81953488 24.0025345,3.10325581 L18.840181,10.2027907 C19.5831466,10.8306977 20.1752845,11.6316279 20.5516552,12.544186 Z" id="Shape"></path>
                            <g transform="translate(36.310345, 7.674419)" id="Shape">
                                <path d="M2.57384483,13.6897674 C0.796732759,13.6897674 0.0272327586,12.5002326 0.0272327586,11.1272093 L0.0272327586,0.655116279 L1.89651724,0.655116279 L1.89651724,11.0169767 C1.89651724,11.7306977 2.15278448,12.0969767 2.90343103,12.0969767 L3.72809483,12.0969767 L3.72809483,13.6897674 L2.57384483,13.6897674 Z"></path>
                                <path d="M4.83905172,2.5772093 L4.83905172,0.6 L6.81796552,0.6 L6.81796552,2.5772093 L4.83905172,2.5772093 Z M4.89421552,13.6897674 L4.89421552,4.40790698 L6.76280172,4.40790698 L6.76280172,13.6890698 L4.89421552,13.6890698 L4.89421552,13.6897674 Z"></path>
                                <path d="M11.5138707,13.6897674 C9.77376724,13.6897674 8.96725862,12.4451163 8.96725862,11.1083721 L8.96725862,6.00069767 L7.90448276,6.00069767 L7.90448276,4.57255814 L8.96725862,4.57255814 L8.96725862,1.75395349 L10.8365431,1.75395349 L10.8365431,4.57255814 L12.6318103,4.57255814 L12.6318103,6.00069767 L10.8365431,6.00069767 L10.8365431,11.0169767 C10.8365431,11.6944186 11.1661293,12.0969767 11.8623103,12.0969767 L12.6318103,12.0969767 L12.6318103,13.6897674 L11.5138707,13.6897674 Z"></path>
                                <path d="M25.353,13.6897674 L25.353,8.03302326 C25.353,6.58674419 24.5283362,5.96372093 23.4844138,5.96372093 C22.4768017,5.96372093 21.5606638,6.60488372 21.5606638,7.94162791 L21.5606638,13.6897674 L19.6913793,13.6897674 L19.6913793,8.03302326 C19.6913793,6.58674419 18.8667155,5.96372093 17.8227931,5.96372093 C16.7781724,5.96372093 15.8983448,6.60488372 15.8983448,8.03302326 L15.8983448,13.6897674 L14.0290603,13.6897674 L14.0290603,4.40790698 L15.8613362,4.40790698 L15.8613362,5.34139535 C16.4841983,4.66395349 17.4003362,4.29837209 18.3346293,4.29837209 C19.4888793,4.29837209 20.3861638,4.75604651 20.9727155,5.65325581 C21.7240603,4.73790698 22.6576552,4.29837209 23.8859224,4.29837209 C24.839069,4.29837209 25.6818879,4.60953488 26.231431,5.14116279 C26.9457672,5.83604651 27.2208879,6.71511628 27.2208879,7.75813953 L27.2208879,13.6897674 L25.353,13.6897674 Z"></path>
                                <path d="M34.2965172,13.6897674 L34.2965172,12.7562791 C33.6555,13.4518605 32.7575172,13.8 31.8239224,13.8 C30.8714741,13.8 30.0831207,13.4888372 29.5335776,12.957907 C28.8185431,12.2623256 28.5985862,11.3839535 28.5985862,10.3402326 L28.5985862,4.40860465 L30.4678707,4.40860465 L30.4678707,10.0653488 C30.4678707,11.5116279 31.2918362,12.1339535 32.3364569,12.1339535 C33.3810776,12.1339535 34.2602069,11.4934884 34.2602069,10.0653488 L34.2602069,4.40860465 L36.1294914,4.40860465 L36.1294914,13.6897674 L34.2965172,13.6897674 L34.2965172,13.6897674 Z"></path>
                                <path d="M40.8233017,13.8 C39.3024569,13.8 38.0197241,13.5432558 36.9206379,12.4639535 L38.1482069,11.2367442 C38.8995517,12.0062791 39.9071638,12.207907 40.8233017,12.207907 C41.9593966,12.207907 42.856681,11.8046512 42.856681,10.9262791 C42.856681,10.3039535 42.5082414,9.90139535 41.6109569,9.82813953 L40.1271207,9.69976744 C38.386319,9.55325581 37.3787069,8.76627907 37.3787069,7.1372093 C37.3787069,5.32465116 38.9358621,4.29976744 40.8784655,4.29976744 C42.2708276,4.29976744 43.4613879,4.5927907 44.3230603,5.3427907 L43.1513534,6.53302326 C42.5648017,6.03906977 41.7401379,5.8555814 40.8603103,5.8555814 C39.7423707,5.8555814 39.1746724,6.34953488 39.1746724,7.04511628 C39.1746724,7.59418605 39.46725,8.0155814 40.4567069,8.10767442 L41.9223879,8.23534884 C43.6631897,8.38186047 44.6896552,9.20581395 44.6896552,10.8530233 C44.6896552,12.7925581 43.0403276,13.8 40.8233017,13.8 Z"></path>
                            </g>
                        </g>
                    </g>
                </g>
                <path d="M112.116,20.168 C110.603992,20.168 109.409338,19.6733383 108.532,18.684 L109.218,17.802 C110.011337,18.6886711 110.991327,19.132 112.158,19.132 C112.914004,19.132 113.469332,18.9710016 113.824,18.649 C114.178668,18.3269984 114.356,17.9513355 114.356,17.522 C114.356,17.1953317 114.253334,16.9200011 114.048,16.696 C113.842666,16.4719989 113.579002,16.2970006 113.257,16.171 C112.934998,16.0449994 112.575669,15.9306672 112.179,15.828 C111.782331,15.7253328 111.388002,15.6110006 110.996,15.485 C110.603998,15.3589994 110.247002,15.2073342 109.925,15.03 C109.602998,14.8526658 109.339334,14.6006683 109.134,14.274 C108.928666,13.9473317 108.826,13.5600022 108.826,13.112 C108.826,12.3466628 109.12933,11.7236691 109.736,11.243 C110.34267,10.7623309 111.107995,10.522 112.032,10.522 C113.422674,10.522 114.528663,10.9559957 115.35,11.824 L114.65,12.678 C113.968663,11.9313296 113.068006,11.558 111.948,11.558 C111.387997,11.558 110.928335,11.6956653 110.569,11.971 C110.209665,12.2463347 110.03,12.6033311 110.03,13.042 C110.03,13.3686683 110.167665,13.6393323 110.443,13.854 C110.718335,14.0686677 111.058998,14.2273328 111.465,14.33 C111.871002,14.4326672 112.314331,14.5609992 112.795,14.715 C113.275669,14.8690008 113.718998,15.0323325 114.125,15.205 C114.531002,15.3776675 114.871665,15.6553314 115.147,16.038 C115.422335,16.4206686 115.56,16.882664 115.56,17.424 C115.56,18.1893372 115.277669,18.8379973 114.713,19.37 C114.148331,19.9020027 113.282672,20.168 112.116,20.168 Z M118.724,20.168 C118.229331,20.168 117.856001,20.032668 117.604,19.762 C117.351999,19.491332 117.226,19.0993359 117.226,18.586 L117.226,14.162 L116.106,14.162 L116.106,13.238 L117.226,13.238 L117.226,11.39 L118.276,11.39 L118.276,13.238 L119.648,13.238 L119.648,14.162 L118.276,14.162 L118.276,18.362 C118.276,18.6233346 118.334333,18.8333325 118.451,18.992 C118.567667,19.1506675 118.737999,19.23 118.962,19.23 C119.270002,19.23 119.507999,19.1366676 119.676,18.95 L119.984,19.734 C119.675998,20.0233348 119.256003,20.168 118.724,20.168 Z M126.41,20 L125.36,20 L125.36,19.23 C124.790664,19.8553365 124.044005,20.168 123.12,20.168 C122.494664,20.168 121.944002,19.9673353 121.468,19.566 C120.991998,19.1646647 120.754,18.6186701 120.754,17.928 C120.754,17.2186631 120.989664,16.6703353 121.461,16.283 C121.932336,15.8956647 122.48533,15.702 123.12,15.702 C124.081338,15.702 124.827997,16.0099969 125.36,16.626 L125.36,15.408 C125.36,14.9599978 125.201335,14.6100013 124.884,14.358 C124.566665,14.1059987 124.156003,13.98 123.652,13.98 C122.858663,13.98 122.168003,14.2926635 121.58,14.918 L121.09,14.19 C121.80867,13.4433296 122.709328,13.07 123.792,13.07 C124.566671,13.07 125.196664,13.2566648 125.682,13.63 C126.167336,14.0033352 126.41,14.5773295 126.41,15.352 L126.41,20 Z M123.498,19.412 C124.338004,19.412 124.958665,19.1320028 125.36,18.572 L125.36,17.298 C124.958665,16.7379972 124.338004,16.458 123.498,16.458 C123.012664,16.458 122.613668,16.5956653 122.301,16.871 C121.988332,17.1463347 121.832,17.5033311 121.832,17.942 C121.832,18.3713355 121.988332,18.7236653 122.301,18.999 C122.613668,19.2743347 123.012664,19.412 123.498,19.412 Z M130.218,20.168 C129.723331,20.168 129.350001,20.032668 129.098,19.762 C128.845999,19.491332 128.72,19.0993359 128.72,18.586 L128.72,14.162 L127.6,14.162 L127.6,13.238 L128.72,13.238 L128.72,11.39 L129.77,11.39 L129.77,13.238 L131.142,13.238 L131.142,14.162 L129.77,14.162 L129.77,18.362 C129.77,18.6233346 129.828333,18.8333325 129.945,18.992 C130.061667,19.1506675 130.231999,19.23 130.456,19.23 C130.764002,19.23 131.001999,19.1366676 131.17,18.95 L131.478,19.734 C131.169998,20.0233348 130.750003,20.168 130.218,20.168 Z M138.24,20 L137.19,20 L137.19,19.048 C136.909999,19.3653349 136.557669,19.6313323 136.133,19.846 C135.708331,20.0606677 135.258002,20.168 134.782,20.168 C133.344659,20.168 132.626,19.4493405 132.626,18.012 L132.626,13.238 L133.676,13.238 L133.676,17.69 C133.676,18.2500028 133.804332,18.6466655 134.061,18.88 C134.317668,19.1133345 134.693331,19.23 135.188,19.23 C135.580002,19.23 135.960331,19.132001 136.329,18.936 C136.697669,18.739999 136.984666,18.4973348 137.19,18.208 L137.19,13.238 L138.24,13.238 L138.24,20 Z M142.482,20.168 C141.333994,20.168 140.424003,19.8133369 139.752,19.104 L140.298,18.348 C140.531334,18.618668 140.850998,18.8473324 141.257,19.034 C141.663002,19.2206676 142.085331,19.314 142.524,19.314 C143.028003,19.314 143.419999,19.2066677 143.7,18.992 C143.980001,18.7773323 144.12,18.4973351 144.12,18.152 C144.12,17.8533318 143.975335,17.6176675 143.686,17.445 C143.396665,17.2723325 143.049002,17.1416671 142.643,17.053 C142.236998,16.9643329 141.828669,16.8616673 141.418,16.745 C141.007331,16.6283328 140.657335,16.4276681 140.368,16.143 C140.078665,15.8583319 139.934,15.482669 139.934,15.016 C139.934,14.4653306 140.160331,14.0033352 140.613,13.63 C141.065669,13.2566648 141.679329,13.07 142.454,13.07 C143.471338,13.07 144.306663,13.3966634 144.96,14.05 L144.47,14.778 C143.993998,14.2086638 143.322004,13.924 142.454,13.924 C141.996664,13.924 141.632668,14.0243323 141.362,14.225 C141.091332,14.4256677 140.956,14.6799985 140.956,14.988 C140.956,15.258668 141.100665,15.4709992 141.39,15.625 C141.679335,15.7790008 142.026998,15.9003329 142.433,15.989 C142.839002,16.0776671 143.247331,16.1826661 143.658,16.304 C144.068669,16.4253339 144.418665,16.6376652 144.708,16.941 C144.997335,17.2443349 145.142,17.6386642 145.142,18.124 C145.142,18.7213363 144.908669,19.2113314 144.442,19.594 C143.975331,19.9766686 143.322004,20.168 142.482,20.168 Z" id="Status" opacity="0.400000006"></path>
                <rect id="Divider" opacity="0.400000006" x="94" y="9" width="1" height="14"></rect>
            </g>
        </g>
    </g>
</svg>