<?xml version="1.0" encoding="UTF-8"?>
<svg width="10px" height="9px" viewBox="0 0 10 9" version="1.1" xmlns="http://www.w3.org/2000/svg" xmlns:xlink="http://www.w3.org/1999/xlink">
    <!-- Generator: Sketch 41.2 (35397) - http://www.bohemiancoding.com/sketch -->
    <title>ok</title>
    <desc>Created with Sketch.</desc>
    <defs></defs>
    <g id="Page-1" stroke="none" stroke-width="1" fill="none" fill-rule="evenodd">
        <g id="Final" transform="translate(-225.000000, -152.000000)" fill="#54C178">
            <g id="sidebar" transform="translate(210.000000, 120.000000)">
                <g id="Menu">
                    <g id="ok" transform="translate(10.000000, 26.000000)">
                        <path d="M14.828125,7.078125 C14.8593752,7.14062531 14.875,7.18749984 14.875,7.21875 C14.875,7.25000016 14.8593752,7.29687469 14.828125,7.359375 L8.9921875,14.859375 C8.89843703,14.9531255 8.82812523,15 8.78125,15 C8.70312461,15 8.62500039,14.9609379 8.546875,14.8828125 L5.2421875,11.6953125 L5.171875,11.625 C5.14062484,11.5624997 5.125,11.5156252 5.125,11.484375 C5.125,11.4687499 5.14062484,11.4296878 5.171875,11.3671875 L5.21875,11.3203125 C5.65625219,10.8515602 5.99999875,10.4921888 6.25,10.2421875 C6.34375047,10.148437 6.40624984,10.1015625 6.4375,10.1015625 C6.50000031,10.1015625 6.57812453,10.148437 6.671875,10.2421875 L8.546875,12.0703125 L13.234375,6.046875 C13.2656252,6.01562484 13.3124997,6 13.375,6 C13.4218752,6 13.4765622,6.01562484 13.5390625,6.046875 L14.828125,7.078125 Z"></path>
                    </g>
                </g>
            </g>
        </g>
    </g>
</svg>